<?xml version="1.0" encoding="UTF-8"?>
<svg version="1.1" xmlns="http://www.w3.org/2000/svg" width="500" height="500">
<path d="M0 0 C165 0 330 0 500 0 C500 165 500 330 500 500 C335 500 170 500 0 500 C0 335 0 170 0 0 Z " fill="#545453" transform="translate(0,0)"/>
<path d="M0 0 C72.96187736 -0.29411775 145.93841772 0.41275262 218.88989258 1.62475586 C235.53298207 1.89698646 252.17575328 2.09219622 268.8203125 2.25 C270.46289095 2.265718 270.46289095 2.265718 272.1386528 2.28175354 C283.10311221 2.38657098 294.06758505 2.48844519 305.03215599 2.58090973 C329.36585116 2.78861506 353.67897051 3.17058589 378 4 C378.11603919 12.17161505 377.87109998 20.16730711 377.01171875 28.29296875 C376.90875992 29.315009 376.80580109 30.33704926 376.69972229 31.39006042 C376.36879662 34.65657352 376.02842877 37.92201722 375.6875 41.1875 C375.45696367 43.44152884 375.22682205 45.69559808 374.99707031 47.94970703 C373.72216001 60.38947419 372.41326369 72.82549243 370.90112305 85.23901367 C370.33165108 89.92779533 369.8482782 94.61082431 369.46386719 99.31884766 C369.37627136 100.38656403 369.28867554 101.4542804 369.19842529 102.55435181 C369.10020477 103.76494766 369.10020477 103.76494766 369 105 C352.0654593 105.06154744 335.13633282 104.99820296 318.203125 104.78125 C317.33555258 104.7701589 316.46798016 104.7590678 315.57411766 104.74764061 C311.95535882 104.70119452 308.33660349 104.65448563 304.71785259 104.60742474 C285.81238083 104.3632079 266.90621311 104.17616051 248 104 C246.9904702 103.99051079 245.9809404 103.98102158 244.94081879 103.97124481 C232.19275175 103.85254867 219.44494147 103.76176331 206.69641113 103.71289062 C203.0345843 103.6981243 199.37301373 103.67377693 195.71130371 103.64111328 C191.42713286 103.60330419 187.14331247 103.58461637 182.85898018 103.58104897 C181.29278637 103.57655143 179.726595 103.56526086 178.16050529 103.54665184 C176.02608436 103.52245641 173.89305918 103.52309842 171.75854492 103.5300293 C170.56662033 103.52416306 169.37469574 103.51829681 168.14665222 103.51225281 C164.38170757 104.09583849 162.79769886 105.49693857 160 108 C159.34 108 158.68 108 158 108 C161.84500228 111.89568969 165.79693872 115.6558202 169.8125 119.375 C170.43705078 119.9537085 171.06160156 120.53241699 171.70507812 121.12866211 C177.09354473 126.108508 182.58418158 130.94446329 188.171875 135.69921875 C195.93176652 142.31136918 203.5359139 149.05539242 211 156 C209.69255345 158.99618194 208.48247286 160.68982107 205.83203125 162.59375 C205.19402588 163.06031006 204.55602051 163.52687012 203.89868164 164.00756836 C203.2102417 164.5000708 202.52180176 164.99257324 201.8125 165.5 C200.34743464 166.57213974 198.88392771 167.64641185 197.421875 168.72265625 C196.3090918 169.54080811 196.3090918 169.54080811 195.17382812 170.37548828 C191.90587321 172.81764597 188.7319491 175.36954286 185.5625 177.9375 C180.27198345 182.21192925 174.91589529 186.38560842 169.5 190.5 C163.39701589 195.1379084 157.37703597 199.86411258 151.40698242 204.67163086 C144.04773906 210.5892812 136.5655829 216.34838318 129 222 C126.11409866 220.68554739 123.97902991 219.25163159 121.6875 217.06640625 C121.08679688 216.49986328 120.48609375 215.93332031 119.8671875 215.34960938 C119.25101563 214.75986328 118.63484375 214.17011719 118 213.5625 C116.77251609 212.3953631 115.54339488 211.22994529 114.3125 210.06640625 C113.77238281 209.55021729 113.23226562 209.03402832 112.67578125 208.50219727 C110.86374444 206.87785832 108.96495902 205.43385286 107 204 C106.12736922 246.16820414 116.60995386 280.26691238 145.5078125 311.73046875 C147.93246416 314.24477794 150.44547139 316.61810867 153 319 C153.797547 319.79256699 154.59509399 320.58513397 155.41680908 321.40171814 C164.71504328 329.61124724 173.10766096 329.18836677 184.984375 328.87890625 C186.89533468 328.86208766 188.80633358 328.84929188 190.71734619 328.84031677 C195.70945325 328.8062071 200.69914486 328.71802854 205.69030762 328.61798096 C210.79841446 328.5253564 215.90691765 328.48469086 221.015625 328.43945312 C231.01146895 328.34338056 241.00553243 328.19009393 251 328 C248.64738612 325.95934621 246.29442404 323.91909429 243.94140625 321.87890625 C243.28515259 321.30966431 242.62889893 320.74042236 241.95275879 320.15393066 C235.90021954 314.90665688 229.82056876 309.69147674 223.73388672 304.48388672 C221.98988614 302.9913444 220.24672896 301.49782373 218.50390625 300.00390625 C217.92487549 299.50769775 217.34584473 299.01148926 216.74926758 298.50024414 C215.59086097 297.50674678 214.43313621 296.51245379 213.27612305 295.51733398 C210.22702913 292.89699872 207.16390962 290.29582186 204.078125 287.71875 C203.11712891 286.91050781 203.11712891 286.91050781 202.13671875 286.0859375 C200.90954592 285.05440092 199.67798394 284.02805586 198.44140625 283.0078125 C195.50237572 280.5277914 193.57185674 278.49260258 192 275 C220.22739428 251.69341268 220.22739428 251.69341268 233.71166992 241.16333008 C238.18505197 237.66195465 242.59814563 234.09072259 247 230.5 C249.00414746 228.87103827 251.00898748 227.24293391 253.01416016 225.61523438 C254.34138896 224.53569838 255.66657872 223.45365081 256.98974609 222.36914062 C258.88203407 220.82060494 260.7835368 219.28414324 262.6875 217.75 C263.53344727 217.05100586 263.53344727 217.05100586 264.39648438 216.33789062 C269.96991957 211.88318607 269.96991957 211.88318607 274 212 C276.5078125 213.7734375 276.5078125 213.7734375 279.125 216.375 C280.09268918 217.31104273 281.06280572 218.24458161 282.03515625 219.17578125 C282.5264502 219.65096191 283.01774414 220.12614258 283.52392578 220.61572266 C285.770847 222.72290812 288.15966627 224.63682474 290.5625 226.5625 C295.00849037 230.15082414 299.25124677 233.9059548 303.47265625 237.75390625 C306.06962393 240.06187598 308.73404013 242.25555863 311.4375 244.4375 C316.20996203 248.29708603 320.73109109 252.37199991 325.24609375 256.52734375 C328.83207284 259.74709519 332.56701492 262.75905176 336.31640625 265.78515625 C338.94708557 267.95632827 341.47942424 270.20241357 344 272.5 C347.41739372 275.61458668 350.9052235 278.5918662 354.5 281.5 C358.96420457 285.11149134 363.23002114 288.88660694 367.47265625 292.75390625 C370.06962393 295.06187598 372.73404013 297.25555863 375.4375 299.4375 C379.24087503 302.51336588 382.90082652 305.68753166 386.5 309 C390.90011717 313.04911067 395.42847564 316.87193797 400.1015625 320.6015625 C401.05804688 321.39304687 402.01453125 322.18453125 403 323 C403.74599457 323.52450241 404.49198914 324.04900482 405.2605896 324.58940125 C411.63983093 329.45620084 411.63983093 329.45620084 412.5921936 333.53833008 C412.54270076 336.50483449 412.20950086 339.29921875 411.75 342.23046875 C411.62101318 343.31571335 411.49202637 344.40095795 411.35913086 345.51908875 C411.08200611 347.83376747 410.78515436 350.14615625 410.47021484 352.45599365 C409.85195106 357.11584392 409.38707082 361.78578445 408.91870117 366.462677 C408.31714768 372.41672692 407.65363869 378.36398443 407 384.3125 C406.47782029 389.10011434 405.95753261 393.88793328 405.4375 398.67578125 C405.31342773 399.81500031 405.18935547 400.95421936 405.06152344 402.12796021 C403.98154195 412.07953962 402.97245027 422.03739002 402 432 C391.14584385 432.03069941 380.29169262 432.05101174 369.4375 432.0625 C368.63444805 432.06335602 367.8313961 432.06421204 367.00400925 432.06509399 C339.32393334 432.0911547 311.6702015 431.79681364 284 431 C284.01377686 431.75998291 284.02755371 432.51996582 284.04174805 433.30297852 C284.05246338 434.29740967 284.06317871 435.29184082 284.07421875 436.31640625 C284.08799561 437.30326416 284.10177246 438.29012207 284.1159668 439.30688477 C283.91636434 443.94228423 282.04824132 445.99334852 278.81785583 449.0955658 C275.32264142 451.45778951 273.29588539 451.5120387 269.10180664 451.53344727 C268.42796432 451.54206284 267.75412201 451.55067841 267.05986023 451.55955505 C264.84289614 451.58216973 262.62720091 451.57548517 260.41015625 451.56640625 C258.86225511 451.5716442 257.31435717 451.57792131 255.76646423 451.58518982 C252.52587847 451.59558586 249.28573203 451.59104487 246.04516602 451.57641602 C241.90103905 451.55923565 237.75829958 451.58271652 233.61432743 451.61790562 C230.41856269 451.63991287 227.22312822 451.63843015 224.02731133 451.6301403 C222.49994829 451.62932246 220.97256059 451.63615399 219.44526863 451.65091133 C217.30518581 451.66841957 215.16757332 451.65376836 213.02758789 451.63110352 C211.8124501 451.63014175 210.59731232 451.62917999 209.34535217 451.62818909 C204.8415659 450.78246964 203.21552901 449.23614339 200 446 C198.30626179 441.99661878 197.92170159 438.55018595 197.9609375 434.265625 C197.96657715 433.46415039 197.9722168 432.66267578 197.97802734 431.83691406 C197.98527832 431.23073242 197.9925293 430.62455078 198 430 C197.43991745 430.00222061 196.8798349 430.00444122 196.30278015 430.00672913 C138.86621365 430.22216256 81.41392667 429.69393143 24 428 C23.89726208 421.44237522 24.15271659 415.03290324 24.82617188 408.51123047 C24.91395401 407.62219528 25.00173615 406.7331601 25.09217834 405.81718445 C25.37972124 402.91670066 25.67416965 400.01696424 25.96875 397.1171875 C26.17096156 395.09128019 26.37273698 393.06532931 26.57409668 391.03933716 C27.10240633 385.73551975 27.63659853 380.43231112 28.17205811 375.12921143 C28.71855082 369.70629089 29.25942258 364.28281003 29.80078125 358.859375 C30.8617169 348.2390305 31.92887395 337.61932123 33 327 C34.00788574 327.02731201 35.01577148 327.05462402 36.05419922 327.08276367 C39.83810997 327.17041358 43.61947712 327.18416446 47.40429688 327.17700195 C49.03373258 327.18392544 50.66321655 327.21019108 52.29199219 327.25708008 C62.44991465 327.78129209 62.44991465 327.78129209 71.29394531 323.57666016 C73.87103376 320.95243558 75.98063749 318.0742323 78 315 C78.66 314.01 79.32 313.02 80 312 C79.60442399 308.91883681 78.29694484 306.34222136 76.92578125 303.578125 C76.29941772 302.29856934 76.29941772 302.29856934 75.66040039 300.99316406 C75.21559326 300.08791992 74.77078613 299.18267578 74.3125 298.25 C68.5965006 286.44094294 64.11349663 274.45224077 60 262 C58.99211426 261.94465088 57.98422852 261.88930176 56.94580078 261.83227539 C53.16230847 261.62390543 49.37898519 261.41258963 45.59570312 261.20043945 C43.96651518 261.10948183 42.33728399 261.01929497 40.70800781 260.92993164 C14.08893387 259.46833218 14.08893387 259.46833218 9 255 C6.07785542 251.03036157 5.61834932 248.17303585 5.59594727 243.28540039 C5.58908401 242.63106522 5.58222076 241.97673004 5.57514954 241.30256653 C5.55692572 239.15070578 5.56071241 236.99957723 5.56640625 234.84765625 C5.56184217 233.34459701 5.55653592 231.84153986 5.55052185 230.33848572 C5.54159938 227.19212351 5.54400371 224.04601523 5.55395508 220.8996582 C5.56544175 216.87678248 5.54523454 212.85478495 5.51603794 208.83202457 C5.49765034 205.72894262 5.49797345 202.6260701 5.50367546 199.52294731 C5.50382838 198.04024461 5.49780868 196.55752744 5.48538399 195.07487679 C5.47042661 192.99736322 5.48118276 190.92145896 5.49829102 188.84399414 C5.49854027 187.07458214 5.49854027 187.07458214 5.49879456 185.26942444 C6.23383615 180.47465816 8.4675003 177.32255363 12.10644531 174.18212891 C16.43444185 172.41397507 20.65945517 172.31407865 25.296875 172.0859375 C26.28625061 172.02596588 27.27562622 171.96599426 28.29498291 171.90420532 C31.44606772 171.71519 34.59779542 171.54422007 37.75 171.375 C40.91621737 171.1956082 44.08215037 171.01244684 47.24786377 170.82437134 C49.21624294 170.70841514 51.18496194 170.5980714 53.1539917 170.4937439 C54.03871155 170.44344025 54.9234314 170.3931366 55.83496094 170.34130859 C57.00813873 170.27827042 57.00813873 170.27827042 58.20501709 170.21395874 C60.02100717 170.18514048 60.02100717 170.18514048 61 169 C61.60694463 166.19974939 61.60694463 166.19974939 61 163 C58.94861195 160.80598586 57.09886682 159.12510977 54.75 157.3125 C53.45538481 156.26244332 52.1624446 155.21031855 50.87109375 154.15625 C50.21866699 153.6303125 49.56624023 153.104375 48.89404297 152.5625 C46.09645873 150.25461921 43.45576495 147.79379804 40.8125 145.3125 C37.18913102 141.94215958 33.48752066 138.72065524 29.625 135.625 C23.89765847 131.01660363 18.57458366 126.02736904 13.21484375 121.00390625 C10.79761973 118.73876155 8.36283727 116.50034857 5.875 114.3125 C5.28589844 113.7865625 4.69679688 113.260625 4.08984375 112.71875 C1.87047096 110.84703947 1.87047096 110.84703947 -1.18359375 108.78125 C-2.01963135 108.16963013 -2.01963135 108.16963013 -2.87255859 107.5456543 C-4.47935807 106.37316887 -6.11603218 105.2419509 -7.75390625 104.11328125 C-11.0102888 99.59965187 -10.0683841 96.44598087 -9.28347778 91.10372925 C-8.69742613 86.75455593 -8.3542134 82.37682683 -7.94921875 78.0078125 C-7.74640811 75.916289 -7.54218425 73.82490214 -7.33666992 71.73364258 C-7.23067474 70.65402252 -7.12467957 69.57440247 -7.01547241 68.46206665 C-6.90724152 67.36083466 -6.79901062 66.25960266 -6.6875 65.125 C-6.57806061 64.00870209 -6.46862122 62.89240417 -6.35586548 61.74227905 C-4.3354622 41.15094553 -2.21034407 20.57176039 0 0 Z " fill="#661414" transform="translate(49,34)"/>
<path d="M0 0 C72.96187736 -0.29411775 145.93841772 0.41275262 218.88989258 1.62475586 C235.53298207 1.89698646 252.17575328 2.09219622 268.8203125 2.25 C270.46289095 2.265718 270.46289095 2.265718 272.1386528 2.28175354 C283.10311221 2.38657098 294.06758505 2.48844519 305.03215599 2.58090973 C329.36585116 2.78861506 353.67897051 3.17058589 378 4 C378.11603919 12.17161505 377.87109998 20.16730711 377.01171875 28.29296875 C376.90875992 29.315009 376.80580109 30.33704926 376.69972229 31.39006042 C376.36879662 34.65657352 376.02842877 37.92201722 375.6875 41.1875 C375.45696367 43.44152884 375.22682205 45.69559808 374.99707031 47.94970703 C373.72216001 60.38947419 372.41326369 72.82549243 370.90112305 85.23901367 C370.33165108 89.92779533 369.8482782 94.61082431 369.46386719 99.31884766 C369.37627136 100.38656403 369.28867554 101.4542804 369.19842529 102.55435181 C369.10020477 103.76494766 369.10020477 103.76494766 369 105 C349.16833427 105.03620813 329.3425891 104.95360904 309.51196289 104.72460938 C306.82762297 104.69490586 304.14328184 104.6653395 301.4589386 104.63594055 C295.7556386 104.57321312 290.05235344 104.50926508 284.34907722 104.44441223 C276.10377661 104.3506555 267.85845504 104.25885743 259.61312764 104.16749042 C246.22554973 104.01909072 232.83798926 103.8691742 219.45043945 103.71826172 C206.46965422 103.57193788 193.48886102 103.42635457 180.50805664 103.28173828 C179.70373827 103.27277729 178.8994199 103.26381631 178.07072825 103.25458378 C174.03445067 103.2096197 169.99817293 103.16466988 165.96189511 103.11972713 C132.64123852 102.74869327 99.32061017 102.37518012 66 102 C67.42294417 103.75254951 68.84779475 105.50355125 70.2734375 107.25390625 C71.06669434 108.2291626 71.85995117 109.20441895 72.67724609 110.20922852 C74.60129701 112.52096133 76.58420513 114.7306774 78.625 116.9375 C81 120 81 120 80.79174805 121.88989258 C79.89319991 124.28463559 78.85167349 126.53603893 77.70703125 128.82421875 C77.24401611 129.76322021 76.78100098 130.70222168 76.30395508 131.66967773 C75.8117749 132.66555908 75.31959473 133.66144043 74.8125 134.6875 C70.14204552 144.26401502 66.22813628 153.85248299 63 164 C57.15771408 159.88194173 51.89976688 155.2718613 46.64453125 150.43359375 C42.12780463 146.27713779 37.49107162 142.26628144 32.81640625 138.2890625 C25.97861181 132.46575503 19.26181209 126.54684906 12.6640625 120.453125 C10.4612591 118.42473712 8.24712112 116.41644617 6 114.4375 C5.39285156 113.89351563 4.78570312 113.34953125 4.16015625 112.7890625 C1.8838914 110.85379245 1.8838914 110.85379245 -1.19140625 108.7734375 C-2.02575195 108.16350952 -2.02575195 108.16350952 -2.87695312 107.54125977 C-4.48264267 106.37071581 -6.11771263 105.24079289 -7.75390625 104.11328125 C-11.0102888 99.59965187 -10.0683841 96.44598087 -9.28347778 91.10372925 C-8.69742613 86.75455593 -8.3542134 82.37682683 -7.94921875 78.0078125 C-7.74640811 75.916289 -7.54218425 73.82490214 -7.33666992 71.73364258 C-7.23067474 70.65402252 -7.12467957 69.57440247 -7.01547241 68.46206665 C-6.90724152 67.36083466 -6.79901062 66.25960266 -6.6875 65.125 C-6.57806061 64.00870209 -6.46862122 62.89240417 -6.35586548 61.74227905 C-4.3354622 41.15094553 -2.21034407 20.57176039 0 0 Z " fill="#FE741F" transform="translate(49,34)"/>
<path d="M0 0 C4.42491763 0.36494166 6.48026322 1.97095587 9.625 5 C13.15512168 8.31014377 16.72912407 11.46620747 20.5 14.5 C24.96420457 18.11149134 29.23002114 21.88660694 33.47265625 25.75390625 C36.06962393 28.06187598 38.73404013 30.25555863 41.4375 32.4375 C46.20996203 36.29708603 50.73109109 40.37199991 55.24609375 44.52734375 C58.83207284 47.74709519 62.56701492 50.75905176 66.31640625 53.78515625 C68.94708557 55.95632827 71.47942424 58.20241357 74 60.5 C77.41739372 63.61458668 80.9052235 66.5918662 84.5 69.5 C88.96420457 73.11149134 93.23002114 76.88660694 97.47265625 80.75390625 C100.06962393 83.06187598 102.73404013 85.25555863 105.4375 87.4375 C109.24087503 90.51336588 112.90082652 93.68753166 116.5 97 C120.90011717 101.04911067 125.42847564 104.87193797 130.1015625 108.6015625 C131.05804688 109.39304687 132.01453125 110.18453125 133 111 C134.11899185 111.78675362 134.11899185 111.78675362 135.2605896 112.58940125 C141.63983093 117.45620084 141.63983093 117.45620084 142.5921936 121.53833008 C142.54270076 124.50483449 142.20950086 127.29921875 141.75 130.23046875 C141.62101318 131.31571335 141.49202637 132.40095795 141.35913086 133.51908875 C141.08200611 135.83376747 140.78515436 138.14615625 140.47021484 140.45599365 C139.85195106 145.11584392 139.38707082 149.78578445 138.91870117 154.462677 C138.31714768 160.41672692 137.65363869 166.36398443 137 172.3125 C136.47782029 177.10011434 135.95753261 181.88793328 135.4375 186.67578125 C135.31342773 187.81500031 135.18935547 188.95421936 135.06152344 190.12796021 C133.98154195 200.07953962 132.97245027 210.03739002 132 220 C121.12501047 220.03067159 110.25002586 220.05100186 99.375 220.0625 C98.16913805 220.06378403 98.16913805 220.06378403 96.93891525 220.06509399 C69.61354756 220.09079655 42.31510031 219.80991071 15 219 C15.14039552 215.02062229 15.28831319 211.04155706 15.4375 207.0625 C15.47681641 205.94552734 15.51613281 204.82855469 15.55664062 203.67773438 C15.79580904 197.40416292 16.21391779 191.22920611 17 185 C24.9483254 181.55731215 32.98509944 178.48083763 41.14770508 175.58764648 C46.31279318 173.72743766 51.13133476 171.53993152 56 169 C54.45797121 164.13383729 51.64295425 160.7976452 48.4375 156.9375 C47.34880732 155.6027464 46.26158329 154.26679365 45.17578125 152.9296875 C44.63775879 152.26807617 44.09973633 151.60646484 43.54541016 150.92480469 C39.8990601 146.38328434 36.46443948 141.68075156 33 137 C31.81367928 135.41578289 30.62632974 133.83233516 29.4375 132.25 C28.625 131.16666667 27.8125 130.08333333 27 129 C25.66623011 129.39435985 24.33303387 129.79065933 23 130.1875 C22.07703125 130.45949219 21.1540625 130.73148438 20.203125 131.01171875 C17.97066028 131.70051579 15.75233083 132.43611965 13.546875 133.20703125 C-21.03920148 145.16214996 -57.47037672 141.33384548 -90.07275391 125.60351562 C-94.60662447 123.34860298 -98.90972264 120.99288588 -103 118 C-103 117.67 -103 117.34 -103 117 C-61.42 116.505 -61.42 116.505 -19 116 C-28.0706989 108.13872762 -37.1458291 100.28693945 -46.26611328 92.48388672 C-48.01011386 90.9913444 -49.75327104 89.49782373 -51.49609375 88.00390625 C-52.07512451 87.50769775 -52.65415527 87.01148926 -53.25073242 86.50024414 C-54.40913903 85.50674678 -55.56686379 84.51245379 -56.72387695 83.51733398 C-59.77297087 80.89699872 -62.83609038 78.29582186 -65.921875 75.71875 C-66.56253906 75.17992187 -67.20320313 74.64109375 -67.86328125 74.0859375 C-69.09045408 73.05440092 -70.32201606 72.02805586 -71.55859375 71.0078125 C-74.49762428 68.5277914 -76.42814326 66.49260258 -78 63 C-49.77260572 39.69341268 -49.77260572 39.69341268 -36.28833008 29.16333008 C-31.13518128 25.12989221 -26.06303344 21.00052675 -20.99389648 16.86230469 C-15.79445816 12.62548998 -10.54059908 8.46269217 -5.25195312 4.33789062 C-2.53469728 2.27475845 -2.53469728 2.27475845 0 0 Z " fill="#CB4E00" transform="translate(319,246)"/>
<path d="M0 0 C51.47342176 -0.10232823 102.9448891 -0.14895137 154.41605759 0.40571976 C157.31798348 0.43688762 160.21991851 0.46704116 163.12185669 0.49703979 C190.42005762 0.78318198 217.70878091 1.32423331 245 2 C243.68747977 19.81372126 241.95087651 37.55831955 240 55.3125 C239.47782029 60.10011434 238.95753261 64.88793328 238.4375 69.67578125 C238.31342773 70.81500031 238.18935547 71.95421936 238.06152344 73.12796021 C236.98154195 83.07953962 235.97245027 93.03739002 235 103 C224.12501047 103.03067159 213.25002586 103.05100186 202.375 103.0625 C201.16913805 103.06378403 201.16913805 103.06378403 199.93891525 103.06509399 C172.61354756 103.09079655 145.31510031 102.80991071 118 102 C118.14039552 98.02062229 118.28831319 94.04155706 118.4375 90.0625 C118.47681641 88.94552734 118.51613281 87.82855469 118.55664062 86.67773438 C118.79580904 80.40416292 119.21391779 74.22920611 120 68 C127.9483254 64.55731215 135.98509944 61.48083763 144.14770508 58.58764648 C149.31279318 56.72743766 154.13133476 54.53993152 159 52 C157.45797121 47.13383729 154.64295425 43.7976452 151.4375 39.9375 C150.34880732 38.6027464 149.26158329 37.26679365 148.17578125 35.9296875 C147.36874756 34.93727051 147.36874756 34.93727051 146.54541016 33.92480469 C142.8990601 29.38328434 139.46443948 24.68075156 136 20 C134.81367928 18.41578289 133.62632974 16.83233516 132.4375 15.25 C131.21875 13.625 131.21875 13.625 130 12 C128.66623011 12.39435985 127.33303387 12.79065933 126 13.1875 C125.07703125 13.45949219 124.1540625 13.73148437 123.203125 14.01171875 C120.97066028 14.70051579 118.75233083 15.43611965 116.546875 16.20703125 C81.96079852 28.16214996 45.52962328 24.33384548 12.92724609 8.60351562 C8.39337553 6.34860298 4.09027736 3.99288588 0 1 C0 0.67 0 0.34 0 0 Z " fill="#FE741F" transform="translate(216,363)"/>
<path d="M0 0 C11.22 0 22.44 0 34 0 C32.0415403 3.9169194 30.1049585 6.21818936 27.125 9.375 C20.59708556 16.0150185 20.59708556 16.0150185 17.5625 24.5 C18.31934638 30.55477107 21.09447273 34.47108346 25.34790039 38.7043457 C26.2221315 39.58157791 27.09636261 40.45881012 27.99708557 41.36262512 C28.94704263 42.30058004 29.89723852 43.23829313 30.84765625 44.17578125 C31.82565202 45.15071572 32.80305488 46.12624528 33.77989197 47.1023407 C35.82049172 49.13835492 37.86588084 51.1693803 39.9152832 53.1965332 C42.54395668 55.79681288 45.16377081 58.40579595 47.7805109 61.0180788 C49.79512919 63.02854594 51.81256269 65.03616632 53.83105278 67.04274559 C54.79837758 68.00437076 55.76523394 68.9664674 56.73161507 69.92904091 C58.07896469 71.26953146 59.43013796 72.60617553 60.78149414 73.94262695 C61.54965958 74.70396439 62.31782501 75.46530182 63.10926819 76.24971008 C66.58563031 79.46785108 69.68297837 79.52426929 74.28515625 79.46484375 C79.29426413 78.60716916 82.3806474 75.37681867 86 72 C86.79148437 71.28972656 87.58296875 70.57945312 88.3984375 69.84765625 C90.06417992 68.35269183 91.72294756 66.84992294 93.375 65.33984375 C96.99803007 62.11038688 100.7660038 59.07502028 104.5546875 56.04296875 C107.04828843 54.09302987 107.04828843 54.09302987 108.8828125 51.67578125 C111 50 111 50 114.27734375 50.01953125 C118.41912246 51.11038797 121.81056571 52.66973113 125.5625 54.6875 C126.97638175 55.41824083 128.39177672 56.14606047 129.80859375 56.87109375 C130.86409424 57.4122583 130.86409424 57.4122583 131.94091797 57.96435547 C140.78071175 62.41045521 149.78236304 65.72632635 159.33203125 68.23828125 C162 69 162 69 163 70 C163.23105121 72.44397887 163.40325269 74.86652528 163.53515625 77.31640625 C163.57813339 78.04746078 163.62111053 78.77851532 163.66539001 79.53172302 C163.80213845 81.87508604 163.93238542 84.21876017 164.0625 86.5625 C164.15387007 88.14781112 164.24566141 89.73309801 164.33789062 91.31835938 C164.56348956 95.21197499 164.78325697 99.10588177 165 103 C106.99758408 103.22996759 48.97968666 102.71062352 -9 101 C-9.10273792 94.44237522 -8.84728341 88.03290324 -8.17382812 81.51123047 C-8.08604599 80.62219528 -7.99826385 79.7331601 -7.90782166 78.81718445 C-7.62027876 75.91670066 -7.32583035 73.01696424 -7.03125 70.1171875 C-6.82903844 68.09128019 -6.62726302 66.06532931 -6.42590332 64.03933716 C-5.89759367 58.73551975 -5.36340147 53.43231112 -4.82794189 48.12921143 C-4.28144918 42.70629089 -3.74057742 37.28281003 -3.19921875 31.859375 C-2.13828291 21.23902861 -1.07060621 10.61937591 0 0 Z " fill="#FD741F" transform="translate(82,361)"/>
<path d="M0 0 C6.1286803 4.36079175 11.63082008 9.23611605 17.1328125 14.34375 C21.71248369 18.58649715 26.42551371 22.66195927 31.1796875 26.70703125 C38.93789971 33.31551951 46.53860545 40.05789665 54 47 C52.69255345 49.99618194 51.48247286 51.68982107 48.83203125 53.59375 C48.19402588 54.06031006 47.55602051 54.52687012 46.89868164 55.00756836 C46.2102417 55.5000708 45.52180176 55.99257324 44.8125 56.5 C43.34743464 57.57213974 41.88392771 58.64641185 40.421875 59.72265625 C39.3090918 60.54080811 39.3090918 60.54080811 38.17382812 61.37548828 C34.90587321 63.81764597 31.7319491 66.36954286 28.5625 68.9375 C23.27198345 73.21192925 17.91589529 77.38560842 12.5 81.5 C6.39701589 86.1379084 0.37703597 90.86411258 -5.59301758 95.67163086 C-12.95226094 101.5892812 -20.4344171 107.34838318 -28 113 C-30.88590134 111.68554739 -33.02097009 110.25163159 -35.3125 108.06640625 C-35.91320312 107.49986328 -36.51390625 106.93332031 -37.1328125 106.34960938 C-37.74898437 105.75986328 -38.36515625 105.17011719 -39 104.5625 C-40.22748391 103.3953631 -41.45660512 102.22994529 -42.6875 101.06640625 C-43.26056885 100.52129395 -43.8336377 99.97618164 -44.42407227 99.41455078 C-46.06395148 97.87425129 -46.06395148 97.87425129 -48.40234375 96.40234375 C-50 95 -50 95 -50.56640625 92.75 C-50.52280705 62.05616385 -32.22661926 30.88689269 -11.0625 9.75 C-7.54487484 6.27557188 -3.91382186 3.02726553 0 0 Z " fill="#CB4D00" transform="translate(206,143)"/>
<path d="M0 0 C8.14044889 -0.05728366 16.27847053 -0.05687819 24.41886902 -0.00975037 C29.77216899 0.01375116 35.12068962 -0.039285 40.47328186 -0.12556458 C44.34125408 -0.17674427 48.20848477 -0.18061617 52.07675171 -0.17599487 C53.97327225 -0.18362215 55.86981992 -0.21052708 57.76577759 -0.25735474 C72.89537166 -0.61290045 72.89537166 -0.61290045 78.11914062 3.39038086 C80.38718401 6.15714546 82.18916903 8.92227068 84 12 C85.18037126 13.33770303 86.38564714 14.65425014 87.625 15.9375 C90 19 90 19 89.79174805 20.88989258 C88.89319991 23.28463559 87.85167349 25.53603893 86.70703125 27.82421875 C86.24401611 28.76322021 85.78100098 29.70222168 85.30395508 30.66967773 C84.8117749 31.66555908 84.31959473 32.66144043 83.8125 33.6875 C79.14204552 43.26401502 75.22813628 52.85248299 72 63 C66.15771408 58.88194173 60.89976688 54.2718613 55.64453125 49.43359375 C51.12780463 45.27713779 46.49107162 41.26628144 41.81640625 37.2890625 C34.98001985 31.46695417 28.26465182 25.54917729 21.66796875 19.45703125 C15.35822432 13.64615388 8.81777973 8.18544842 2.125 2.8203125 C1.42375 2.21960938 0.7225 1.61890625 0 1 C0 0.67 0 0.34 0 0 Z " fill="#CB4D00" transform="translate(40,135)"/>
<path d="M0 0 C1.00813499 -0.01511375 1.00813499 -0.01511375 2.03663635 -0.03053284 C4.25400527 -0.05898091 6.47069246 -0.06488796 8.68823242 -0.06811523 C10.23516618 -0.0777601 11.78209721 -0.08785286 13.32902527 -0.09837341 C16.57130268 -0.11632791 19.81334045 -0.12189533 23.05566406 -0.12011719 C27.19872387 -0.11981271 31.34023662 -0.16073095 35.48293018 -0.21243382 C38.67871573 -0.24589176 41.87413137 -0.25187188 45.07007408 -0.25028801 C46.59664927 -0.25381516 48.12323536 -0.2670123 49.64963722 -0.29028511 C63.06354386 -0.47562655 63.06354386 -0.47562655 67.65966797 3.35400391 C71.28745741 7.21937265 71.45900238 10.30123852 71.79370117 15.56079102 C71.87749023 16.84211914 71.9612793 18.12344727 72.04760742 19.44360352 C72.10819336 20.43102539 72.1687793 21.41844727 72.23120117 22.43579102 C43.21584114 22.58756942 14.23695411 22.18120576 -14.76879883 21.43579102 C-14.81618987 19.51024779 -14.8500561 17.58436835 -14.87817383 15.65844727 C-14.90862793 14.04981812 -14.90862793 14.04981812 -14.93969727 12.40869141 C-14.66047 7.55133359 -12.46073828 5.03664233 -9.05122375 1.8106842 C-5.93903546 -0.06404405 -3.62276085 0.03413771 0 0 Z " fill="#671514" transform="translate(261.768798828125,14.564208984375)"/>
</svg>
